<svg width="98" height="18" viewBox="0 0 98 18" fill="none" xmlns="http://www.w3.org/2000/svg">
<g clip-path="url(#clip0_4369_64321)">
<path d="M15.1169 0.00502453C12.1039 -0.113821 11.1264 2.05134 10.1095 2.05636C9.09265 2.06138 8.11929 -0.113821 5.10213 0.00502453C2.31764 0.114663 -0.232504 2.58447 0.0177401 5.95983C0.338287 10.2843 5.19252 14.8255 8.72188 17.4443C9.12278 17.7422 9.61071 18.0008 10.1079 18.0008C10.605 18.0008 11.0929 17.7422 11.4938 17.4443C14.9772 14.8607 19.8783 10.2901 20.198 5.95983C20.4499 2.60455 17.9181 0.114663 15.1169 0.00502453Z" fill="#ff5c8a"/>
<path fill-rule="evenodd" clip-rule="evenodd" d="M37.2461 5.64263C36.3245 4.80363 35.122 4.34048 33.8758 4.34454C31.3792 4.34454 29.332 6.24188 29.332 8.93849C29.332 11.7347 31.5784 13.5324 34.0758 13.5324C35.4484 13.5324 36.3974 13.1073 37.2461 12.5089L39.4933 16.0533C38.145 17.2518 36.2476 17.8761 34.1754 17.8761C29.2316 17.8761 24.7632 14.7552 24.7632 8.93849C24.7632 3.52016 29.1571 0 34.0758 0C36.2978 0 38.3944 0.774167 39.5427 2.02288L37.2461 5.64263ZM54.0978 9.63732V17.6016H49.7792V10.8107C49.7792 9.1134 48.8301 8.38862 47.7815 8.38862C46.583 8.38862 45.5594 9.26322 45.5594 10.8107V17.6016H41.2651V0H45.5594V6.94072C45.8105 5.59325 47.0826 4.14451 49.4796 4.14451C52.0004 4.14618 54.0978 6.11717 54.0978 9.63732ZM55.9031 11.0133C55.9031 14.905 58.9236 17.8761 62.8932 17.8761C66.8628 17.8761 69.8841 14.905 69.8841 11.0133C69.8841 7.12149 66.8628 4.15037 62.8932 4.15037C58.9236 4.15037 55.9031 7.12149 55.9031 11.0133ZM65.4877 11.0107C65.4877 12.5582 64.3913 13.7065 62.8932 13.7065C61.3951 13.7065 60.2987 12.5591 60.2987 11.0107C60.2987 9.46241 61.3976 8.31413 62.8932 8.31413C64.3888 8.31413 65.4877 9.46325 65.4877 11.0107ZM80.8438 9.16279C80.2948 8.66062 79.5206 8.31413 78.5221 8.31413C77.1487 8.31413 75.7753 9.3377 75.7753 10.9605C75.7753 12.6578 77.1981 13.7065 78.6469 13.7065C79.4515 13.7196 80.2361 13.4554 80.8689 12.9583L82.7663 16.2533C81.8674 17.1271 80.4697 17.8761 78.3974 17.8761C75.1016 17.8761 71.332 15.8039 71.332 11.0133C71.332 6.56912 75.1267 4.15037 78.4217 4.15037C80.4195 4.15037 81.967 4.94964 82.7663 5.77319L80.8438 9.16279ZM83.3161 11.0133C83.3161 14.905 86.3366 17.8761 90.3062 17.8761C94.2758 17.8761 97.2972 14.905 97.2972 11.0133C97.2972 7.12149 94.2758 4.15037 90.3062 4.15037C86.3366 4.15037 83.3161 7.12149 83.3161 11.0133ZM92.9007 11.0107C92.9007 12.5582 91.8043 13.7065 90.3062 13.7065C88.8081 13.7065 87.7117 12.5591 87.7117 11.0107C87.7117 9.46241 88.8098 8.31413 90.3062 8.31413C91.8027 8.31413 92.9007 9.46325 92.9007 11.0107Z" fill="white"/>
</g>
<defs>
<clipPath id="clip0_4369_64321">
<rect width="97.2964" height="18" fill="white"/>
</clipPath>
</defs>
</svg>
